<svg width="45" height="44" viewBox="0 0 45 44" fill="none" xmlns="http://www.w3.org/2000/svg">
<circle opacity="0.75" cx="22.9277" cy="22" r="22" fill="#F8D5DB"/>
<g clip-path="url(#clip0_362_884)">
<path d="M29 22.1801L27.5 23.8201L29.5 26.0001H16.5L18.5 23.8201L17 22.1801L14 25.4501V30.0001C14 31.1001 14.9 32.0001 16 32.0001H30C31.1 32.0001 32 31.1001 32 30.0001V25.4601L29 22.1801Z" fill="#DD2D4A"/>
<path d="M21.5902 24.42C22.3702 25.21 23.6402 25.22 24.4302 24.43L29.4102 19.45C30.1902 18.67 30.1902 17.4 29.4102 16.62L25.8702 13.09C25.0902 12.31 23.8202 12.31 23.0402 13.09L18.0902 18.04C17.3102 18.82 17.3102 20.07 18.0802 20.86L21.5902 24.42ZM24.4602 14.5L27.9902 18.03L23.0502 22.97L19.5202 19.44L24.4602 14.5Z" fill="#DD2D4A"/>
</g>
<defs>
<clipPath id="clip0_362_884">
<rect width="24" height="24" fill="white" transform="translate(11 10)"/>
</clipPath>
</defs>
</svg>
