<svg width="45" height="44" viewBox="0 0 45 44" fill="none" xmlns="http://www.w3.org/2000/svg">
<circle opacity="0.75" cx="22.9277" cy="22" r="22" fill="#F8D5DB"/>
<g clip-path="url(#clip0_362_727)">
<path d="M14.9896 31.2899L24.0296 28.0599C25.4096 27.5699 25.8096 25.7999 24.7696 24.7599L20.2396 20.2299C19.1996 19.1899 17.4396 19.5899 16.9396 20.9699L13.7096 30.0099C13.4296 30.8099 14.1896 31.5699 14.9896 31.2899Z" fill="#DD2D4A"/>
<path d="M26.0597 22L31.1197 16.94C31.6097 16.45 32.3997 16.45 32.8897 16.94L32.9497 17C33.2397 17.29 33.7197 17.29 34.0097 17C34.2997 16.71 34.2997 16.23 34.0097 15.94L33.9497 15.88C32.8797 14.81 31.1297 14.81 30.0597 15.88L24.9997 20.94C24.7097 21.23 24.7097 21.71 24.9997 22C25.2897 22.29 25.7697 22.29 26.0597 22Z" fill="#DD2D4A"/>
<path d="M21.0597 16.8799L20.9997 16.9399C20.7097 17.2299 20.7097 17.7099 20.9997 17.9999C21.2897 18.2899 21.7697 18.2899 22.0597 17.9999L22.1197 17.9399C23.1897 16.8699 23.1897 15.1199 22.1197 14.0499L22.0697 13.9999C21.7697 13.6999 21.2897 13.6999 20.9997 13.9999C20.7097 14.2899 20.7097 14.7699 20.9997 15.0599L21.0597 15.1199C21.5397 15.5999 21.5397 16.3999 21.0597 16.8799Z" fill="#DD2D4A"/>
<path d="M28.0597 21.88L26.9997 22.94C26.7097 23.23 26.7097 23.71 26.9997 24C27.2897 24.29 27.7697 24.29 28.0597 24L29.1197 22.94C29.6097 22.45 30.3997 22.45 30.8897 22.94L31.9697 24.02C32.2597 24.31 32.7397 24.31 33.0297 24.02C33.3197 23.73 33.3197 23.25 33.0297 22.96L31.9497 21.88C30.8697 20.81 29.1297 20.81 28.0597 21.88Z" fill="#DD2D4A"/>
<path d="M26.0597 15.88L22.9997 18.94C22.7097 19.23 22.7097 19.71 22.9997 20C23.2897 20.29 23.7697 20.29 24.0597 20L27.1197 16.94C28.1897 15.87 28.1897 14.12 27.1197 13.05L26.0597 11.99C25.7697 11.7 25.2897 11.7 24.9997 11.99C24.7097 12.28 24.7097 12.76 24.9997 13.05L26.0597 14.11C26.5397 14.6 26.5397 15.4 26.0597 15.88Z" fill="#DD2D4A"/>
</g>
<defs>
<clipPath id="clip0_362_727">
<rect width="24" height="24" fill="white" transform="translate(11 10)"/>
</clipPath>
</defs>
</svg>
