<svg width="45" height="44" viewBox="0 0 45 44" fill="none" xmlns="http://www.w3.org/2000/svg">
<circle opacity="0.75" cx="22.9277" cy="22" r="22" fill="#F8D5DB"/>
<g clip-path="url(#clip0_343_1137)">
<path d="M22.9277 30L22.0677 29.14C20.8877 27.96 20.8977 26.04 22.0877 24.88L22.9277 24.06C22.5377 24.02 22.2477 24 21.9277 24C19.2577 24 13.9277 25.34 13.9277 28V30H22.9277ZM21.9277 22C24.1377 22 25.9277 20.21 25.9277 18C25.9277 15.79 24.1377 14 21.9277 14C19.7177 14 17.9277 15.79 17.9277 18C17.9277 20.21 19.7177 22 21.9277 22Z" fill="#DD2D4A"/>
<path d="M27.108 29.78C26.718 30.17 26.078 30.17 25.688 29.78L23.618 27.69C23.238 27.3 23.238 26.68 23.618 26.3L23.628 26.29C24.018 25.9 24.648 25.9 25.028 26.29L26.398 27.66L30.828 23.2C31.218 22.81 31.848 22.81 32.238 23.2L32.248 23.21C32.628 23.6 32.628 24.22 32.248 24.6L27.108 29.78Z" fill="#DD2D4A"/>
</g>
<defs>
<clipPath id="clip0_343_1137">
<rect width="24" height="24" fill="white" transform="translate(10.9277 10)"/>
</clipPath>
</defs>
</svg>
