<svg width="45" height="44" viewBox="0 0 45 44" fill="none" xmlns="http://www.w3.org/2000/svg">
<circle opacity="0.75" cx="22.9277" cy="22" r="22" fill="#F8D5DB"/>
<g clip-path="url(#clip0_362_974)">
<path d="M27 16V22C27 23.1 27.9 24 29 24H30V31C30 31.55 30.45 32 31 32C31.55 32 32 31.55 32 31V13.13C32 12.48 31.39 12 30.76 12.15C28.6 12.68 27 14.51 27 16ZM22 19H20V13C20 12.45 19.55 12 19 12C18.45 12 18 12.45 18 13V19H16V13C16 12.45 15.55 12 15 12C14.45 12 14 12.45 14 13V19C14 21.21 15.79 23 18 23V31C18 31.55 18.45 32 19 32C19.55 32 20 31.55 20 31V23C22.21 23 24 21.21 24 19V13C24 12.45 23.55 12 23 12C22.45 12 22 12.45 22 13V19Z" fill="#DD2D4A"/>
</g>
<defs>
<clipPath id="clip0_362_974">
<rect width="24" height="24" fill="white" transform="translate(11 10)"/>
</clipPath>
</defs>
</svg>
