<svg width="45" height="44" viewBox="0 0 45 44" fill="none" xmlns="http://www.w3.org/2000/svg">
<circle opacity="0.75" cx="22.9277" cy="22" r="22" fill="#F8D5DB"/>
<g clip-path="url(#clip0_362_914)">
<path d="M31 13H17C15.9 13 15 13.9 15 15V23C15 25.21 16.79 27 19 27H25C27.21 27 29 25.21 29 23V20H31C32.1 20 33 19.1 33 18V15C33 13.9 32.1 13 31 13ZM31 18H29V15H31V18ZM14 31H30C30.55 31 31 30.55 31 30C31 29.45 30.55 29 30 29H14C13.45 29 13 29.45 13 30C13 30.55 13.45 31 14 31Z" fill="#DD2D4A"/>
</g>
<defs>
<clipPath id="clip0_362_914">
<rect width="24" height="24" fill="white" transform="translate(11 10)"/>
</clipPath>
</defs>
</svg>
