<svg width="48" height="48" viewBox="0 0 48 48" fill="none" xmlns="http://www.w3.org/2000/svg">
<circle cx="24" cy="24" r="23.5" stroke="#880D1E"/>
<path d="M33.057 19.1807C33.0663 19.3919 33.0663 19.5935 33.0663 19.8047C33.0756 26.208 28.3711 33.6 19.7678 33.6C17.2304 33.6 14.7392 32.8416 12.6 31.4208C12.9704 31.4688 13.3409 31.488 13.7113 31.488C15.8135 31.488 17.8601 30.7584 19.5178 29.4048C17.5175 29.3664 15.7579 28.0128 15.1467 26.0352C15.8505 26.1792 16.5729 26.1504 17.2582 25.9488C15.0819 25.5072 13.5168 23.52 13.5076 21.2064C13.5076 21.1872 13.5076 21.168 13.5076 21.1488C14.1558 21.5232 14.8874 21.7344 15.6283 21.7536C13.5816 20.3328 12.9427 17.5007 14.1836 15.2831C16.5636 18.3167 20.0642 20.1504 23.8241 20.352C23.4444 18.6719 23.963 16.9055 25.1761 15.7151C27.0561 13.8815 30.0195 13.9775 31.7976 15.9263C32.844 15.7151 33.8535 15.3119 34.7703 14.7455C34.4184 15.8687 33.6868 16.8191 32.7144 17.4239C33.6405 17.3087 34.548 17.0495 35.4 16.6655C34.7703 17.6447 33.9738 18.4895 33.057 19.1807Z" fill="#880D1E"/>
</svg>
