<svg width="48" height="48" viewBox="0 0 48 48" fill="none" xmlns="http://www.w3.org/2000/svg">
<circle cx="24" cy="24" r="23.5" stroke="#880D1E"/>
<path d="M35.9328 19.052C35.8752 17.7742 35.6687 16.8999 35.3759 16.1361C35.0686 15.3483 34.6605 14.6757 33.9932 14.0128C33.3259 13.3499 32.6585 12.9319 31.8712 12.6293C31.1078 12.3315 30.234 12.1297 28.957 12.0721C27.6751 12.0144 27.2671 12 24.012 12C20.7522 12 20.3441 12.0144 19.067 12.0721C17.79 12.1297 16.9162 12.3363 16.1528 12.6293C15.3607 12.9367 14.6885 13.3451 14.026 14.0128C13.3635 14.6805 12.9458 15.3483 12.6433 16.1361C12.3505 16.8999 12.144 17.7742 12.0864 19.052C12.0288 20.3347 12.0144 20.743 12.0144 24C12.0144 27.2618 12.0288 27.6701 12.0864 28.948C12.144 30.2258 12.3505 31.1001 12.6433 31.8639C12.9506 32.6517 13.3587 33.3243 14.026 33.9872C14.6885 34.6549 15.3607 35.0681 16.148 35.3707C16.9114 35.6685 17.7852 35.8703 19.0622 35.9279C20.3441 35.9856 20.7522 36 24.0072 36C27.2671 36 27.6751 35.9856 28.9522 35.9279C30.2292 35.8703 31.103 35.6637 31.8664 35.3707C32.6537 35.0633 33.3259 34.6549 33.9884 33.9872C34.6509 33.3195 35.0686 32.6517 35.3711 31.8639C35.6687 31.1001 35.8704 30.2258 35.928 28.948C35.9856 27.6653 36 27.257 36 24C36 20.743 35.9904 20.3299 35.9328 19.052ZM33.7772 28.8519C33.7243 30.024 33.5275 30.6629 33.3643 31.0809C33.1482 31.6381 32.8842 32.0416 32.4617 32.4644C32.0392 32.8871 31.6407 33.1417 31.079 33.3675C30.6565 33.5308 30.018 33.7278 28.8514 33.7806C27.5887 33.8383 27.2094 33.8527 24.0024 33.8527C20.7954 33.8527 20.4161 33.8383 19.1534 33.7806C17.982 33.7278 17.3435 33.5308 16.9258 33.3675C16.3689 33.1513 15.9656 32.8871 15.5431 32.4644C15.1206 32.0416 14.8662 31.6429 14.6405 31.0809C14.4773 30.6581 14.2805 30.0192 14.2276 28.8519C14.17 27.5885 14.1556 27.209 14.1556 24C14.1556 20.791 14.17 20.4115 14.2276 19.1481C14.2805 17.976 14.4773 17.3371 14.6405 16.9191C14.8566 16.3619 15.1206 15.9584 15.5431 15.5356C15.9656 15.1129 16.3641 14.8583 16.9258 14.6325C17.3483 14.4692 17.9868 14.2722 19.1534 14.2194C20.4161 14.1617 20.7954 14.1473 24.0024 14.1473C27.2094 14.1473 27.5887 14.1617 28.8514 14.2194C30.0228 14.2722 30.6613 14.4692 31.079 14.6325C31.6359 14.8487 32.0392 15.1129 32.4617 15.5356C32.8842 15.9584 33.1386 16.3571 33.3643 16.9191C33.5275 17.3419 33.7243 17.9808 33.7772 19.1481C33.8348 20.4115 33.8492 20.791 33.8492 24C33.8492 27.209 33.83 27.5885 33.7772 28.8519Z" fill="#880D1E"/>
<path d="M24.0024 17.8319C20.5938 17.8319 17.838 20.5941 17.838 24C17.838 27.4107 20.5986 30.1681 24.0024 30.1681C27.4063 30.1681 30.1669 27.4011 30.1669 24C30.1669 20.5893 27.4111 17.8319 24.0024 17.8319ZM24.0024 28.0016C21.794 28.0016 20.0032 26.2098 20.0032 24C20.0032 21.7902 21.794 19.9984 24.0024 19.9984C26.2109 19.9984 28.0016 21.7902 28.0016 24C28.0016 26.2098 26.2109 28.0016 24.0024 28.0016Z" fill="#880D1E"/>
<path d="M30.4069 19.0328C31.2024 19.0328 31.8472 18.3876 31.8472 17.5917C31.8472 16.7957 31.2024 16.1505 30.4069 16.1505C29.6115 16.1505 28.9666 16.7957 28.9666 17.5917C28.9666 18.3876 29.6115 19.0328 30.4069 19.0328Z" fill="#880D1E"/>
<path d="M12 24C12 27.2618 12.0144 27.6701 12.072 28.948C12.1296 30.2258 12.3361 31.1001 12.6289 31.8639C12.9362 32.6517 13.3443 33.3243 14.0116 33.9872C14.6741 34.6501 15.3463 35.0681 16.1336 35.3707C16.897 35.6685 17.7708 35.8703 19.0478 35.9279C20.3297 35.9856 20.7377 36 23.9928 36C27.2527 36 27.6607 35.9856 28.9378 35.9279C30.2148 35.8703 31.0886 35.6637 31.852 35.3707C32.6393 35.0633 33.3115 34.6549 33.974 33.9872C34.6365 33.3243 35.0542 32.6517 35.3567 31.8639C35.6543 31.1001 35.856 30.2258 35.9136 28.948C35.9712 27.6653 35.9856 27.257 35.9856 24C35.9856 20.7382 35.9712 20.3299 35.9136 19.052C35.856 17.7742 35.6495 16.8999 35.3567 16.1361C35.0494 15.3483 34.6413 14.6757 33.974 14.0128C33.3163 13.3451 32.6441 12.9319 31.8568 12.6293C31.0934 12.3315 30.2196 12.1297 28.9426 12.0721C27.6607 12.0144 27.2527 12 23.9976 12C20.7377 12 20.3297 12.0144 19.0526 12.0721C17.7756 12.1297 16.9018 12.3363 16.1384 12.6293C15.3511 12.9367 14.6789 13.3451 14.0164 14.0128C13.3539 14.6805 12.9362 15.3483 12.6337 16.1361C12.3361 16.8999 12.1296 17.7742 12.072 19.052C12.0144 20.3299 12 20.7382 12 24ZM14.1652 24C14.1652 20.7958 14.1796 20.4115 14.2372 19.1481C14.2901 17.976 14.4869 17.3371 14.6501 16.9191C14.8662 16.3619 15.1302 15.9584 15.5527 15.5356C15.9752 15.1129 16.3737 14.8583 16.9354 14.6325C17.3579 14.4692 17.9964 14.2722 19.163 14.2194C20.4257 14.1617 20.805 14.1473 24.012 14.1473C27.219 14.1473 27.5983 14.1617 28.861 14.2194C30.0324 14.2722 30.6709 14.4692 31.0886 14.6325C31.6455 14.8487 32.0488 15.1129 32.4713 15.5356C32.8938 15.9584 33.1482 16.3571 33.3739 16.9191C33.5371 17.3419 33.7339 17.9808 33.7868 19.1481C33.8444 20.4115 33.8588 20.791 33.8588 24C33.8588 27.209 33.8444 27.5885 33.7868 28.8519C33.7339 30.024 33.5371 30.6629 33.3739 31.0809C33.1578 31.6381 32.8938 32.0416 32.4713 32.4644C32.0488 32.8871 31.6503 33.1417 31.0886 33.3675C30.6661 33.5308 30.0276 33.7278 28.861 33.7806C27.5983 33.8383 27.219 33.8527 24.012 33.8527C20.805 33.8527 20.4257 33.8383 19.163 33.7806C17.9916 33.7278 17.3531 33.5308 16.9354 33.3675C16.3785 33.1513 15.9752 32.8871 15.5527 32.4644C15.1302 32.0416 14.8758 31.6429 14.6501 31.0809C14.4869 30.6581 14.2901 30.0192 14.2372 28.8519C14.1748 27.5885 14.1652 27.2042 14.1652 24Z" fill="#880D1E"/>
</svg>
